<mxfile host="app.diagrams.net" modified="2021-01-22T21:03:44.242Z" agent="5.0 (Macintosh; Intel Mac OS X 10_15_7) AppleWebKit/605.1.15 (KHTML, like Gecko) Version/14.0.2 Safari/605.1.15" etag="FAQF-OIilaVwK57WX5RQ" version="14.2.7" type="github">
  <diagram id="-w9G4Y97GcsajXjlwfUQ" name="Page-1">
    <mxGraphModel dx="1084" dy="804" grid="1" gridSize="10" guides="1" tooltips="1" connect="1" arrows="1" fold="1" page="1" pageScale="1" pageWidth="827" pageHeight="1169" background="none" math="0" shadow="0">
      <root>
        <mxCell id="0" />
        <mxCell id="1" parent="0" />
        <mxCell id="0uaCBq9OTAoCECaHlLFM-2" value="" style="rounded=0;whiteSpace=wrap;html=1;opacity=50;strokeWidth=3;perimeterSpacing=0;" parent="1" vertex="1">
          <mxGeometry x="70" y="150" width="1070" height="830" as="geometry" />
        </mxCell>
        <mxCell id="0uaCBq9OTAoCECaHlLFM-1" value="VCN" style="shape=image;verticalLabelPosition=bottom;verticalAlign=top;imageAspect=0;aspect=fixed;image=data:image/svg+xml,PHN2ZyB2ZXJzaW9uPSIxLjEiIGlkPSJEUkciIHhtbG5zPSJodHRwOi8vd3d3LnczLm9yZy8yMDAwL3N2ZyIgeG1sbnM6eGxpbms9Imh0dHA6Ly93d3cudzMub3JnLzE5OTkveGxpbmsiIHg9IjBweCIgeT0iMHB4IiB2aWV3Qm94PSIwIDAgMTYxLjkgMTYyIiBlbmFibGUtYmFja2dyb3VuZD0ibmV3IDAgMCAxNjEuOSAxNjIiIHhtbDpzcGFjZT0icHJlc2VydmUiPiYjeGE7PHBhdGggZmlsbD0iIzMxMkQyQSIgZD0iTTE1My41LDY4LjJjMC0xMC41LTguNS0xOS0xOS0xOWMtMy45LDAtNy41LDEuMi0xMC41LDMuMkw5OC43LDMzLjljMC4zLTEuNCwwLjUtMi44LDAuNS00LjMgIGMwLTEwLjUtOC41LTE5LTE5LTE5cy0xOSw4LjUtMTksMTljMCwxLjcsMC4yLDMuMywwLjcsNC45TDM3LjcsNTIuMWMtMi45LTEuOC02LjQtMi45LTEwLTIuOWMtMTAuNSwwLTE5LDguNS0xOSwxOSAgYzAsMTAsNy43LDE4LjEsMTcuNSwxOC45bDkuMiwyOC4yYy00LjgsMy41LTgsOS4xLTgsMTUuNGMwLDEwLjUsOC41LDE5LDE5LDE5YzcuOSwwLDE0LjgtNC45LDE3LjYtMTEuOWgzNC4zICBjMi44LDYuOSw5LjYsMTEuOSwxNy42LDExLjljMTAuNSwwLDE5LTguNSwxOS0xOWMwLTYuNy0zLjUtMTIuNS04LjctMTUuOWw5LTI3LjdDMTQ1LjMsODYuOCwxNTMuNSw3OC40LDE1My41LDY4LjJ6IE0xMzQuNSw1OS4yICBjNSwwLDksNCw5LDlzLTQsOS05LDlzLTktNC05LTlTMTI5LjYsNTkuMiwxMzQuNSw1OS4yeiBNMTE4LjQsNTguMmMtMS44LDIuOS0yLjksNi4zLTIuOSwxMGMwLDAuNiwwLDEuMiwwLjEsMS44TDk2LjcsNzYgIGMtMi42LTQuNS02LjktNy44LTEyLTkuMVY0OC4xYzQuMi0xLDcuOS0zLjUsMTAuNS02LjhMMTE4LjQsNTguMnogTTYwLjgsMTE4LjRsMTEuOS0xNS42YzIuMywxLDQuOCwxLjUsNy41LDEuNSAgYzMuMiwwLDYuMi0wLjgsOC44LTIuMmwxMi40LDE2LjJjLTIuNywzLjEtNC4zLDcuMS00LjUsMTEuNUg2NS4zQzY1LjEsMTI1LjUsNjMuNCwxMjEuNSw2MC44LDExOC40eiBNODAuMiw3Ni40YzUsMCw5LDQsOSw5ICBzLTQsOS05LDljLTUsMC05LTQtOS05Uzc1LjIsNzYuNCw4MC4yLDc2LjR6IE04MC4yLDIwLjZjNSwwLDksNCw5LDlzLTQsOS05LDljLTUsMC05LTQtOS05Uzc1LjIsMjAuNiw4MC4yLDIwLjZ6IE03Ni43LDQ4LjN2MTguNCAgYy01LjMsMS05LjksNC4yLTEyLjYsOC43bC0xNy40LTYuMWMwLTAuNCwwLjEtMC44LDAuMS0xLjJjMC0zLjktMS4yLTcuNC0zLjEtMTAuNGwyMi0xNkM2OC4zLDQ1LjEsNzIuMiw0Ny41LDc2LjcsNDguM3ogTTE4LjcsNjguMiAgYzAtNSw0LTksOS05czksNCw5LDlzLTQsOS05LDlTMTguNyw3My4xLDE4LjcsNjguMnogTTM0LjIsODZjNC40LTEuNiw4LjEtNC44LDEwLjMtOC45TDYxLjMsODNjLTAuMSwwLjgtMC4yLDEuNi0wLjIsMi40ICBjMCw0LjksMS45LDkuNCw1LDEyLjhsLTExLjgsMTUuNGMtMi41LTEuMi01LjItMS44LTguMS0xLjhjLTEuMywwLTIuNSwwLjEtMy43LDAuNEwzNC4yLDg2eiBNNDYuMywxMzkuOGMtNSwwLTktNC05LTlzNC05LDktOSAgczksNCw5LDlTNTEuMywxMzkuOCw0Ni4zLDEzOS44eiBNMTE1LjgsMTM5LjhjLTUsMC05LTQtOS05czQtOSw5LTlzOSw0LDksOVMxMjAuOCwxMzkuOCwxMTUuOCwxMzkuOHogTTExNS44LDExMS43ICBjLTIuOSwwLTUuNiwwLjctOC4xLDEuOEw5NS4xLDk3LjFjMi41LTMuMiw0LTcuMyw0LTExLjdjMC0wLjYsMC0xLjItMC4xLTEuN2wxOC45LTYuMWMyLjEsMy42LDUuMyw2LjUsOS4yLDguMmwtOC41LDI2LjMgIEMxMTcuOCwxMTEuOCwxMTYuOCwxMTEuNywxMTUuOCwxMTEuN3oiLz4mI3hhOzwvc3ZnPg==" parent="1" vertex="1">
          <mxGeometry x="50" y="130" width="40" height="40" as="geometry" />
        </mxCell>
        <mxCell id="0uaCBq9OTAoCECaHlLFM-4" value="Public Subnet - Bastion" style="outlineConnect=0;gradientColor=none;html=1;whiteSpace=wrap;fontSize=12;fontStyle=0;shape=mxgraph.aws4.group;grIcon=mxgraph.aws4.group_subnet;strokeColor=#879196;fillColor=none;verticalAlign=top;align=left;spacingLeft=30;fontColor=#879196;dashed=0;" parent="1" vertex="1">
          <mxGeometry x="90" y="180" width="420" height="160" as="geometry" />
        </mxCell>
        <mxCell id="0uaCBq9OTAoCECaHlLFM-6" value="Public Subnet - LB" style="outlineConnect=0;gradientColor=none;html=1;whiteSpace=wrap;fontSize=12;fontStyle=0;shape=mxgraph.aws4.group;grIcon=mxgraph.aws4.group_subnet;strokeColor=#879196;fillColor=none;verticalAlign=top;align=left;spacingLeft=30;fontColor=#879196;dashed=0;" parent="1" vertex="1">
          <mxGeometry x="540" y="180" width="490" height="160" as="geometry" />
        </mxCell>
        <mxCell id="0uaCBq9OTAoCECaHlLFM-13" value="Internet GW" style="shape=image;verticalLabelPosition=bottom;verticalAlign=top;imageAspect=0;aspect=fixed;image=data:image/svg+xml,PHN2ZyB2ZXJzaW9uPSIxLjEiIGlkPSJJbnRlcm5ldF9HYXRld2F5IiB4bWxucz0iaHR0cDovL3d3dy53My5vcmcvMjAwMC9zdmciIHhtbG5zOnhsaW5rPSJodHRwOi8vd3d3LnczLm9yZy8xOTk5L3hsaW5rIiB4PSIwcHgiIHk9IjBweCIgdmlld0JveD0iMCAwIDE2MS45IDE2MiIgZW5hYmxlLWJhY2tncm91bmQ9Im5ldyAwIDAgMTYxLjkgMTYyIiB4bWw6c3BhY2U9InByZXNlcnZlIj4mI3hhOzxnPiYjeGE7CTxyZWN0IHg9Ijc3LjQiIHk9IjcxLjkiIGZpbGw9IiMzMTJEMkEiIHdpZHRoPSI2LjMiIGhlaWdodD0iMi44Ii8+JiN4YTsJPHJlY3QgeD0iNzcuNCIgeT0iNjYuMyIgZmlsbD0iIzMxMkQyQSIgd2lkdGg9IjYuMyIgaGVpZ2h0PSIyLjgiLz4mI3hhOwk8cGF0aCBmaWxsPSIjMzEyRDJBIiBkPSJNMTA0LjcsMjkuNGMtMi40LTQuNy03LjktMTAuMi0xNy4zLTguOGMtMy41LTMuNS0xMC4yLTcuNC0xOC44LTQuOWMtMS40LDAuMy03LjgsMi40LTExLjEsMTAuNSAgIEM1MiwyNy41LDQ0LjEsMzIsNDIuMiw0Mi44bDAsMC4yYzAsMC4zLTEsOC4xLDMuOSwxNC4xYzMuMSwzLjgsNy43LDUuOSwxMy42LDYuNGwwLjEsMGw0Mi41LDBjMC4xLDAsMC4yLDAsMC4yLDAgICBjNSwwLDE0LjgtMy4zLDE2LjktMTYuMmwwLTAuNEMxMTkuOSw0MS42LDExNy4xLDMxLjYsMTA0LjcsMjkuNHogTTEwMi40LDU1LjlIODMuNXYtOS40aDkuNEw4MC40LDMwLjRMNjguMyw0Ni42aDguOXY5LjRINjAuMSAgIGMtMy43LTAuMy02LjQtMS41LTguMS0zLjZjLTIuNy0zLjItMi40LTcuOC0yLjMtOC40YzEuOC05LjYsMTAtMTAuNiwxMC45LTEwLjdsMi42LTAuMmwwLjctMi41YzEuOC02LjQsNi4yLTcuNSw2LjMtNy41bDAuMy0wLjEgICBjNy41LTIuMiwxMS44LDMuMywxMi4yLDMuOWwxLjUsMi4ybDIuNS0wLjdjOC41LTIuMiwxMS4xLDQuMywxMS42LDUuNmwwLjgsMi40bDIuNSwwLjJjOS44LDAuOCwxMC4zLDcuOSwxMC4zLDkuNiAgIEMxMTAuMyw1NS43LDEwMy4zLDU1LjksMTAyLjQsNTUuOXoiLz4mI3hhOwk8cG9seWdvbiBmaWxsPSIjMzEyRDJBIiBwb2ludHM9Ijc0LjMsMTAwLjYgNzcuNSwxMDAuNiA3Ny41LDEyMy40IDc0LjIsMTIzLjQgODAuNiwxMzUgODcsMTIzLjQgODMuOCwxMjMuNCA4My44LDEwMC42IDg3LDEwMC42ICAgIDgwLjYsODkuMSAgIi8+JiN4YTsJPHBhdGggZmlsbD0iIzMxMkQyQSIgZD0iTTgwLjUsNzcuMWMtMTksMC0zNC41LDE1LjctMzQuNSwzNXMxNS41LDM1LDM0LjUsMzVjMTksMCwzNC41LTE1LjcsMzQuNS0zNVM5OS41LDc3LjEsODAuNSw3Ny4xeiAgICBNODYuNCwxMTIuMWwxMS42LDYuNHYtMy4yaDkuMmMtMS41LDEzLjctMTMsMjQuNC0yNi44LDI0LjRjLTEzLjksMC0yNS4zLTEwLjctMjYuOC0yNC40aDkuN3YzLjJMNzUsMTEybC0xMS42LTYuNHYzLjJoLTkuNyAgIGMxLjYtMTMuNiwxMy0yNC4zLDI2LjgtMjQuM2MxMy44LDAsMjUuMiwxMC42LDI2LjgsMjQuM0g5OHYtMy4yTDg2LjQsMTEyLjF6Ii8+JiN4YTs8L2c+JiN4YTs8L3N2Zz4=" parent="1" vertex="1">
          <mxGeometry x="1057" y="177" width="52" height="52" as="geometry" />
        </mxCell>
        <mxCell id="0uaCBq9OTAoCECaHlLFM-14" value="LB - WLS External&#xa;(129.159.78.99)" style="shape=image;verticalLabelPosition=bottom;verticalAlign=top;imageAspect=0;aspect=fixed;image=data:image/svg+xml,PHN2ZyB2ZXJzaW9uPSIxLjEiIGlkPSJMb2FkX0JhbGFuY2VyIiB4bWxucz0iaHR0cDovL3d3dy53My5vcmcvMjAwMC9zdmciIHhtbG5zOnhsaW5rPSJodHRwOi8vd3d3LnczLm9yZy8xOTk5L3hsaW5rIiB4PSIwcHgiIHk9IjBweCIgdmlld0JveD0iMCAwIDE2MS45IDE2MiIgZW5hYmxlLWJhY2tncm91bmQ9Im5ldyAwIDAgMTYxLjkgMTYyIiB4bWw6c3BhY2U9InByZXNlcnZlIj4mI3hhOzxwYXRoIGZpbGw9IiMzMTJEMkEiIGQ9Ik0xMjIuNSwxMTIuOEw5Mi42LDg0LjdoMzYuMnY2LjZsMTgtOS45bC0xOC05Ljl2NS4ySDkyLjNsMzAuMi0yOC40bDQuMSw0LjRsNi4zLTE5LjZMMTEzLDM4LjJsNCw0LjIgIEw4OCw2OS43VjMwLjZIMjguOHY0Ni4xSDExLjF2OGgxNy43djQ2LjlIODhWOTEuM2wyOSwyNy4zbC00LDQuMmwxOS45LDUuMWwtNi4zLTE5LjZMMTIyLjUsMTEyLjh6IE03OSwxMjIuNUgzNy44Vjg0LjdoMjIuN3Y2LjYgIGwxOC05LjlsLTE4LTkuOXY1LjJIMzcuOFYzOS42SDc5VjEyMi41eiIvPiYjeGE7PC9zdmc+;rotation=0;" parent="1" vertex="1">
          <mxGeometry x="630" y="218" width="62" height="62" as="geometry" />
        </mxCell>
        <mxCell id="0uaCBq9OTAoCECaHlLFM-15" value="" style="shape=image;verticalLabelPosition=bottom;verticalAlign=top;imageAspect=0;aspect=fixed;image=data:image/svg+xml,PHN2ZyB2ZXJzaW9uPSIxLjEiIGlkPSJCdWNrZXRzIiB4bWxucz0iaHR0cDovL3d3dy53My5vcmcvMjAwMC9zdmciIHhtbG5zOnhsaW5rPSJodHRwOi8vd3d3LnczLm9yZy8xOTk5L3hsaW5rIiB4PSIwcHgiIHk9IjBweCIgdmlld0JveD0iMCAwIDE2MS45IDE2MiIgZW5hYmxlLWJhY2tncm91bmQ9Im5ldyAwIDAgMTYxLjkgMTYyIiB4bWw6c3BhY2U9InByZXNlcnZlIj4mI3hhOzxnPiYjeGE7CTxwYXRoIGZpbGw9IiMzMTJEMkEiIGQ9Ik0xMjAuNSwxMzEuNmMtNCwwLTcuMywzLjMtNy4zLDcuM3MzLjMsNy4zLDcuMyw3LjNzNy4zLTMuMyw3LjMtNy4zUzEyNC42LDEzMS42LDEyMC41LDEzMS42eiBNNjAsMTMxLjYgICBjLTQsMC03LjMsMy4zLTcuMyw3LjNzMy4zLDcuMyw3LjMsNy4zYzQsMCw3LjMtMy4zLDcuMy03LjNTNjQsMTMxLjYsNjAsMTMxLjZ6IE00OS4zLDEyNi43aDY2YzE4LjEsMCwyMi40LTEyLjgsMjQuMy0xOC4ybDAuMS0wLjIgICBjMS4zLTMuOCw1LjItMTMuNiw3LjYtMTkuNGMxLjgtNC40LDIuMi01LjQsMi4zLTUuN2wwLTAuMWMxLjQtMy42LDItNy4zLDItMTEuMWMwLTguMS0zLjMtMTYtOC45LTIxLjlsLTAuNC0wLjRsMC4xLTAuNSAgIGMwLjItMS4zLDAuNC0yLjUsMC40LTMuOGMwLTExLjQtOS4zLTIwLjctMjAuNy0yMC43Yy0zLjUsMC03LDAuOS0xMC4xLDIuN2wtMC43LDAuNGwtMC41LTAuN2MtNS44LTcuMi0xNC40LTExLjMtMjMuNy0xMS4zICAgYy0xNS44LDAtMjkuMiwxMi40LTMwLjQsMjguMWwwLDAuNWwtMC41LDAuM2MtMy45LDIuMi03LjMsNS4yLTEwLDguOGwtMS4zLDEuN2wtMC42LTIuNWMtMS45LTgtMy40LTE0LjItNC0xNi41ICAgQzM2LDIwLjQsMTkuMywxOS4xLDEwLjgsMjAuNmwxLjcsOS4zYzEuMS0wLjIsNC44LTAuNiw4LjgsMC4yYzEuOSwwLjQsNy45LDEuNiw5LjcsOC42YzAuNiwyLjMsMi4zLDkuMiw0LDE2LjZsMCwwLjIgICBjMS44LDcuNSwzLjgsMTUuOCw1LjUsMjIuOGMwLjEsMC43LDAuMywxLjMsMC41LDEuOWwwLjQsMS4yYzMuMSw5LjgsMTEuMiwxNy43LDIwLjksMjAuNmMyLjksMC44LDUuOSwxLjMsOC45LDEuM2w1MC4yLDBsMC40LDAgICBjMi45LTAuMSw1LjgtMC43LDguNS0xLjZsMi0wLjdsLTAuNywyYy0wLjQsMS0wLjYsMS44LTAuOSwyLjRsLTAuMSwwLjJjLTEuNyw0LjktMy43LDExLjEtMTUuMywxMS4xaC02NlYxMjYuN3ogTTEyMC4yLDkzLjhoLTQ5ICAgYy0yLjEsMC00LjItMC4zLTYuMi0wLjljLTctMi4xLTEyLjctNy44LTE0LjgtMTQuOGwtMC41LTEuOWMtMC4zLTEuNC0wLjQtMi45LTAuNC00LjNjMC02LjYsMi45LTEyLjgsOC4xLTE3ICAgYzItMS42LDQuMy0yLjksNi43LTMuN2MtMC4yLTEuNC0wLjQtMi44LTAuNC00LjFDNjMuOCwzNC40LDc0LjIsMjQsODcsMjRjNi4yLDAsMTIuMSwyLjEsMTYuNiw1LjljMy4yLDIuNyw1LjUsNiw2LjUsOS40ICAgYzIuMy0zLjUsNi41LTUuOSwxMS01LjljNi44LDAsMTIuMyw1LjUsMTIuMywxMi4zYzAsMi43LTAuOCw1LjItMi40LDcuM2MyLjcsMS41LDUsMy42LDYuOSw2LjFjMi44LDMuOCw0LjIsOC4yLDQuMiwxMi45ICAgYzAsNy0zLjIsMTMuNC04LjgsMTcuNkMxMjkuNSw5Mi40LDEyNSw5My44LDEyMC4yLDkzLjh6IE03NC40LDY5LjlsMjAuMiwxNi41bDIxLTE3LjJWNTcuOEw5OS44LDcxLjZWMzhoLTkuM3YzMy43TDc0LjQsNTguNFY2OS45ICAgeiIvPiYjeGE7PC9nPiYjeGE7PC9zdmc+" parent="1" vertex="1">
          <mxGeometry x="1098" y="990" width="42" height="42" as="geometry" />
        </mxCell>
        <mxCell id="0uaCBq9OTAoCECaHlLFM-16" value="Service GW" style="shape=image;verticalLabelPosition=bottom;verticalAlign=top;imageAspect=0;aspect=fixed;image=data:image/svg+xml,PHN2ZyB2ZXJzaW9uPSIxLjEiIGlkPSJEUkciIHhtbG5zPSJodHRwOi8vd3d3LnczLm9yZy8yMDAwL3N2ZyIgeG1sbnM6eGxpbms9Imh0dHA6Ly93d3cudzMub3JnLzE5OTkveGxpbmsiIHg9IjBweCIgeT0iMHB4IiB2aWV3Qm94PSIwIDAgMTYxLjkgMTYyIiBlbmFibGUtYmFja2dyb3VuZD0ibmV3IDAgMCAxNjEuOSAxNjIiIHhtbDpzcGFjZT0icHJlc2VydmUiPiYjeGE7PGc+JiN4YTsJPHBhdGggZmlsbD0iIzMxMkQyQSIgZD0iTTgxLDE5LjJjLTM0LjEsMC02MS44LDI3LjctNjEuOCw2MS44czI3LjcsNjEuOCw2MS44LDYxLjhzNjEuOC0yNy43LDYxLjgtNjEuOFMxMTUuMSwxOS4yLDgxLDE5LjJ6ICAgIE04MSwxMzMuOGMtMjcuNywwLTUwLjUtMjEuNS01Mi42LTQ4LjdoMjMuOXY4LjZsMjEtMTEuNmwtMjEtMTEuNXY3LjFoLTI0QzMwLjEsNTAuMSw1MywyOC4yLDgxLDI4LjJjMjguMSwwLDUxLjEsMjIsNTIuNyw0OS43ICAgaC0yMy44di03LjhsLTIxLDExLjZsMjEsMTEuNXYtNy44aDIzLjdDMTMxLjQsMTEyLjQsMTA4LjcsMTMzLjgsODEsMTMzLjh6Ii8+JiN4YTsJPHBvbHlnb24gZmlsbD0iIzMxMkQyQSIgcG9pbnRzPSI4NC4yLDYwLjcgOTIuMSw2MC43IDgwLjUsMzkuOCA2OSw2MC43IDc2LjgsNjAuNyA3Ni44LDEwMiA2OC45LDEwMiA4MC41LDEyMi45IDkyLDEwMiA4NC4yLDEwMiAgICAgIi8+JiN4YTs8L2c+JiN4YTs8L3N2Zz4=" parent="1" vertex="1">
          <mxGeometry x="1056" y="260" width="55" height="55" as="geometry" />
        </mxCell>
        <mxCell id="0uaCBq9OTAoCECaHlLFM-17" value="" style="shape=image;verticalLabelPosition=bottom;verticalAlign=top;imageAspect=0;aspect=fixed;image=data:image/svg+xml,PHN2ZyB2ZXJzaW9uPSIxLjEiIGlkPSJSb3V0ZV9UYWJsZSIgeG1sbnM9Imh0dHA6Ly93d3cudzMub3JnLzIwMDAvc3ZnIiB4bWxuczp4bGluaz0iaHR0cDovL3d3dy53My5vcmcvMTk5OS94bGluayIgeD0iMHB4IiB5PSIwcHgiIHZpZXdCb3g9IjAgMCAxNjEuOSAxNjIiIGVuYWJsZS1iYWNrZ3JvdW5kPSJuZXcgMCAwIDE2MS45IDE2MiIgeG1sOnNwYWNlPSJwcmVzZXJ2ZSI+JiN4YTs8Zz4mI3hhOwk8cGF0aCBmaWxsPSIjMzEyRDJBIiBkPSJNNTguNCwzMi4xaC05LjhIMjAuNHYyOS41djkuMnYyMC40djkuMnYyOS41aDI4LjNoOS44aDgzLjh2LTI5LjV2LTkuMlY3MC44di05LjJWMzIuMUg1OC40eiBNNDguNiwxMjAuOSAgIEgyOS40di0yMC41aDE5LjNWMTIwLjl6IE00OC42LDkxLjJIMjkuNFY3MC44aDE5LjNWOTEuMnogTTQ4LjYsNjEuN0gyOS40VjQxLjFoMTkuM1Y2MS43eiBNMTMzLjMsMTIwLjlINTguNHYtMjAuNWg3NC44VjEyMC45eiAgICBNMTMzLjMsOTEuMkg1OC40VjcwLjhoNzQuOFY5MS4yeiBNMTMzLjMsNjEuN0g1OC40VjQxLjFoNzQuOFY2MS43eiIvPiYjeGE7CTxwb2x5Z29uIGZpbGw9IiMzMTJEMkEiIHBvaW50cz0iNjguNCw1OC4zIDcwLjksNTMuOCA3My41LDU4LjMgNzcuOSw1OC4zIDczLjYsNTEuMyA3Ny43LDQ0LjggNzMuMyw0NC44IDcwLjksNDguOSA2OC41LDQ0LjggICAgNjQuMSw0NC44IDY4LjIsNTEuMyA2My45LDU4LjMgICIvPiYjeGE7CTxyZWN0IHg9IjgwIiB5PSI1NS4xIiBmaWxsPSIjMzEyRDJBIiB3aWR0aD0iMy45IiBoZWlnaHQ9IjMuMiIvPiYjeGE7CTxwb2x5Z29uIGZpbGw9IiMzMTJEMkEiIHBvaW50cz0iOTEuNCw1OC4zIDkzLjksNTMuOCA5Ni41LDU4LjMgMTAwLjgsNTguMyA5Ni41LDUxLjMgMTAwLjYsNDQuOCA5Ni4zLDQ0LjggOTMuOSw0OC45IDkxLjQsNDQuOCAgICA4Ny4xLDQ0LjggOTEuMSw1MS4zIDg2LjksNTguMyAgIi8+JiN4YTsJPHJlY3QgeD0iMTAyLjIiIHk9IjU1LjEiIGZpbGw9IiMzMTJEMkEiIHdpZHRoPSIzLjkiIGhlaWdodD0iMy4yIi8+JiN4YTsJPHBvbHlnb24gZmlsbD0iIzMxMkQyQSIgcG9pbnRzPSIxMTIuOCw1OC4zIDExNS4zLDUzLjggMTE3LjksNTguMyAxMjIuMiw1OC4zIDExNy45LDUxLjMgMTIyLDQ0LjggMTE3LjcsNDQuOCAxMTUuMyw0OC45ICAgIDExMi44LDQ0LjggMTA4LjUsNDQuOCAxMTIuNSw1MS4zIDEwOC4zLDU4LjMgICIvPiYjeGE7CTxyZWN0IHg9IjEyMy42IiB5PSI1NS4xIiBmaWxsPSIjMzEyRDJBIiB3aWR0aD0iMy45IiBoZWlnaHQ9IjMuMiIvPiYjeGE7CTxwb2x5Z29uIGZpbGw9IiMzMTJEMkEiIHBvaW50cz0iNjguNCw4Ny44IDcwLjksODMuNCA3My41LDg3LjggNzcuOSw4Ny44IDczLjYsODAuOSA3Ny43LDc0LjQgNzMuMyw3NC40IDcwLjksNzguNSA2OC41LDc0LjQgICAgNjQuMSw3NC40IDY4LjIsODAuOCA2My45LDg3LjggICIvPiYjeGE7CTxyZWN0IHg9IjgwIiB5PSI4NC42IiBmaWxsPSIjMzEyRDJBIiB3aWR0aD0iMy45IiBoZWlnaHQ9IjMuMiIvPiYjeGE7CTxwb2x5Z29uIGZpbGw9IiMzMTJEMkEiIHBvaW50cz0iOTEuNCw4Ny44IDkzLjksODMuNCA5Ni41LDg3LjggMTAwLjgsODcuOCA5Ni41LDgwLjkgMTAwLjYsNzQuNCA5Ni4zLDc0LjQgOTMuOSw3OC41IDkxLjQsNzQuNCAgICA4Ny4xLDc0LjQgOTEuMSw4MC44IDg2LjksODcuOCAgIi8+JiN4YTsJPHJlY3QgeD0iMTAyLjIiIHk9Ijg0LjYiIGZpbGw9IiMzMTJEMkEiIHdpZHRoPSIzLjkiIGhlaWdodD0iMy4yIi8+JiN4YTsJPHBvbHlnb24gZmlsbD0iIzMxMkQyQSIgcG9pbnRzPSIxMTIuOCw4Ny44IDExNS4zLDgzLjQgMTE3LjksODcuOCAxMjIuMiw4Ny44IDExNy45LDgwLjkgMTIyLDc0LjQgMTE3LjcsNzQuNCAxMTUuMyw3OC41ICAgIDExMi44LDc0LjQgMTA4LjUsNzQuNCAxMTIuNSw4MC44IDEwOC4zLDg3LjggICIvPiYjeGE7CTxyZWN0IHg9IjEyMy42IiB5PSI4NC42IiBmaWxsPSIjMzEyRDJBIiB3aWR0aD0iMy45IiBoZWlnaHQ9IjMuMiIvPiYjeGE7CTxwb2x5Z29uIGZpbGw9IiMzMTJEMkEiIHBvaW50cz0iNjguNCwxMTcuNCA3MC45LDExMi45IDczLjUsMTE3LjQgNzcuOSwxMTcuNCA3My42LDExMC40IDc3LjcsMTAzLjkgNzMuMywxMDMuOSA3MC45LDEwOCAgICA2OC41LDEwMy45IDY0LjEsMTAzLjkgNjguMiwxMTAuMyA2My45LDExNy40ICAiLz4mI3hhOwk8cmVjdCB4PSI4MCIgeT0iMTE0LjIiIGZpbGw9IiMzMTJEMkEiIHdpZHRoPSIzLjkiIGhlaWdodD0iMy4yIi8+JiN4YTsJPHBvbHlnb24gZmlsbD0iIzMxMkQyQSIgcG9pbnRzPSI5MS40LDExNy40IDkzLjksMTEyLjkgOTYuNSwxMTcuNCAxMDAuOCwxMTcuNCA5Ni41LDExMC40IDEwMC42LDEwMy45IDk2LjMsMTAzLjkgOTMuOSwxMDggICAgOTEuNCwxMDMuOSA4Ny4xLDEwMy45IDkxLjEsMTEwLjMgODYuOSwxMTcuNCAgIi8+JiN4YTsJPHJlY3QgeD0iMTAyLjIiIHk9IjExNC4yIiBmaWxsPSIjMzEyRDJBIiB3aWR0aD0iMy45IiBoZWlnaHQ9IjMuMiIvPiYjeGE7CTxwb2x5Z29uIGZpbGw9IiMzMTJEMkEiIHBvaW50cz0iMTEyLjgsMTE3LjQgMTE1LjMsMTEyLjkgMTE3LjksMTE3LjQgMTIyLjIsMTE3LjQgMTE3LjksMTEwLjQgMTIyLDEwMy45IDExNy43LDEwMy45IDExNS4zLDEwOCAgICAxMTIuOCwxMDMuOSAxMDguNSwxMDMuOSAxMTIuNSwxMTAuMyAxMDguMywxMTcuNCAgIi8+JiN4YTsJPHJlY3QgeD0iMTIzLjYiIHk9IjExNC4yIiBmaWxsPSIjMzEyRDJBIiB3aWR0aD0iMy45IiBoZWlnaHQ9IjMuMiIvPiYjeGE7PC9nPiYjeGE7PC9zdmc+" parent="1" vertex="1">
          <mxGeometry x="316.5" y="190" width="57" height="57" as="geometry" />
        </mxCell>
        <mxCell id="0uaCBq9OTAoCECaHlLFM-18" value="" style="shape=image;verticalLabelPosition=bottom;verticalAlign=top;imageAspect=0;aspect=fixed;image=data:image/svg+xml,PHN2ZyB2ZXJzaW9uPSIxLjEiIGlkPSJTZWN1cml0eV9MaXN0cyIgeG1sbnM9Imh0dHA6Ly93d3cudzMub3JnLzIwMDAvc3ZnIiB4bWxuczp4bGluaz0iaHR0cDovL3d3dy53My5vcmcvMTk5OS94bGluayIgeD0iMHB4IiB5PSIwcHgiIHZpZXdCb3g9IjAgMCAxNjEuOSAxNjIiIGVuYWJsZS1iYWNrZ3JvdW5kPSJuZXcgMCAwIDE2MS45IDE2MiIgeG1sOnNwYWNlPSJwcmVzZXJ2ZSI+JiN4YTs8Zz4mI3hhOwk8cGF0aCBmaWxsPSIjMzEyRDJBIiBkPSJNMTI3LDgzVjQwLjNsLTQ2LTE5LjdsLTQ2LDE5LjhsMC4yLDQ1LjFsMC4xLDAuNGM2LjgsMzkuNSw0Mi42LDU0LjEsNDQuMSw1NC43bDEuOSwwLjhsMS44LTAuOSAgIEMxMjYuOSwxMTcuOSwxMjcsODQuNCwxMjcsODN6IE0xMTgsODMuMWMwLDEuMi0wLjMsMjguNi0zNy4xLDQ4LjNjLTYuOS0zLjQtMzEuNS0xNy4zLTM2LjctNDYuN2wtMC4xLTM4LjRsMzctMTUuOWwzNywxNS45VjgzLjF6Ii8+JiN4YTsJPHBvbHlnb24gZmlsbD0iIzMxMkQyQSIgcG9pbnRzPSI5OS41LDY5LjYgOTUuMSw3NCA5MC43LDY5LjYgODcuNyw3Mi43IDkyLjEsNzcuMSA4Ny43LDgxLjQgOTAuNyw4NC41IDk1LjEsODAuMSA5OS41LDg0LjUgICAgMTAyLjYsODEuNCA5OC4yLDc3LjEgMTAyLjYsNzIuNyAgIi8+JiN4YTsJPHBvbHlnb24gZmlsbD0iIzMxMkQyQSIgcG9pbnRzPSIxMDQuMSw1Mi45IDEwMS4xLDQ5LjggOTIuNiw1OCA4OS41LDU0LjMgODYuMiw1Ny4xIDkyLjMsNjQuMyAgIi8+JiN4YTsJPHBvbHlnb24gZmlsbD0iIzMxMkQyQSIgcG9pbnRzPSIxMDQuMSw5MiAxMDEuMSw4OC45IDkyLjYsOTcuMSA4OS41LDkzLjQgODYuMiw5Ni4yIDkyLjMsMTAzLjQgICIvPiYjeGE7CTxyZWN0IHg9IjU3LjgiIHk9Ijc0LjUiIGZpbGw9IiMzMTJEMkEiIHdpZHRoPSIyMS4yIiBoZWlnaHQ9IjYuNiIvPiYjeGE7CTxyZWN0IHg9IjU3LjgiIHk9Ijk0LjEiIGZpbGw9IiMzMTJEMkEiIHdpZHRoPSIyMS4yIiBoZWlnaHQ9IjYuNiIvPiYjeGE7CTxyZWN0IHg9IjU3LjgiIHk9IjU0LjkiIGZpbGw9IiMzMTJEMkEiIHdpZHRoPSIyMS4yIiBoZWlnaHQ9IjYuNiIvPiYjeGE7PC9nPiYjeGE7PC9zdmc+" parent="1" vertex="1">
          <mxGeometry x="320" y="280" width="50" height="50" as="geometry" />
        </mxCell>
        <mxCell id="0uaCBq9OTAoCECaHlLFM-20" value="VM - Bastion" style="shape=image;verticalLabelPosition=bottom;verticalAlign=top;imageAspect=0;aspect=fixed;image=data:image/svg+xml,PHN2ZyB2ZXJzaW9uPSIxLjEiIGlkPSJWTSIgeG1sbnM9Imh0dHA6Ly93d3cudzMub3JnLzIwMDAvc3ZnIiB4bWxuczp4bGluaz0iaHR0cDovL3d3dy53My5vcmcvMTk5OS94bGluayIgeD0iMHB4IiB5PSIwcHgiIHZpZXdCb3g9IjAgMCAxNjEuOSAxNjIiIGVuYWJsZS1iYWNrZ3JvdW5kPSJuZXcgMCAwIDE2MS45IDE2MiIgeG1sOnNwYWNlPSJwcmVzZXJ2ZSI+JiN4YTs8cGF0aCBmaWxsPSIjMzEyRDJBIiBkPSJNNjAuNCw5MC45SDMzLjdWNjQuMWgyNi43VjkwLjl6IE00MC43LDgzLjloMTIuN1Y3MS4xSDQwLjdWODMuOXogTTEyNy42LDkwLjloLTI2LjdWNjQuMWgyNi43VjkwLjl6ICAgTTEwNy44LDgzLjloMTIuN1Y3MS4xaC0xMi43VjgzLjl6IE05My45LDkwLjlINjcuMlY2NC4xaDI2LjdWOTAuOXogTTc0LjIsODMuOWgxMi43VjcxLjFINzQuMlY4My45eiBNNjAuNCw1Ny44SDMzLjdWMzEuMWgyNi43ICBWNTcuOHogTTQwLjcsNTAuOGgxMi43VjM4LjFINDAuN1Y1MC44eiBNMTI3LjYsNTcuOGgtMjYuN1YzMS4xaDI2LjdWNTcuOHogTTEwNy44LDUwLjhoMTIuN1YzOC4xaC0xMi43VjUwLjh6IE05My45LDU3LjhINjcuMlYzMS4xICBoMjYuN1Y1Ny44eiBNNzQuMiw1MC44aDEyLjdWMzguMUg3NC4yVjUwLjh6IE0xNTIuOCwxNTIuOUg5VjkuMmgxNDMuOFYxNTIuOXogTTE4LDE0My45aDEyNS44VjE4LjJIMThWMTQzLjl6IE0xMjkuMSwxMzIuM0gzMi45ICBWOTcuNGg5Ni4zVjEzMi4zeiBNNDEuOSwxMjMuM2g3OC4zdi0xNi45SDQxLjlWMTIzLjN6IE0xMDUuOCwxMTAuMmMtMi42LDAtNC43LDIuMS00LjcsNC43YzAsMi42LDIuMSw0LjcsNC43LDQuNyAgYzIuNiwwLDQuNy0yLjEsNC43LTQuN0MxMTAuNSwxMTIuMywxMDguNCwxMTAuMiwxMDUuOCwxMTAuMnoiLz4mI3hhOzwvc3ZnPg==" parent="1" vertex="1">
          <mxGeometry x="120" y="220" width="40" height="40" as="geometry" />
        </mxCell>
        <mxCell id="9CzY_LCpeozfdE7S5n3H-2" value="NAT GW" style="shape=image;verticalLabelPosition=bottom;verticalAlign=top;imageAspect=0;aspect=fixed;image=data:image/svg+xml,PHN2ZyB2ZXJzaW9uPSIxLjEiIGlkPSJOQVRfR2F0ZXdheSIgeG1sbnM9Imh0dHA6Ly93d3cudzMub3JnLzIwMDAvc3ZnIiB4bWxuczp4bGluaz0iaHR0cDovL3d3dy53My5vcmcvMTk5OS94bGluayIgeD0iMHB4IiB5PSIwcHgiIHZpZXdCb3g9IjAgMCAxNjEuOSAxNjIiIGVuYWJsZS1iYWNrZ3JvdW5kPSJuZXcgMCAwIDE2MS45IDE2MiIgeG1sOnNwYWNlPSJwcmVzZXJ2ZSI+JiN4YTs8cGF0aCBmaWxsPSIjMzEyRDJBIiBkPSJNMTQwLjMsOTAuMWgtMTcuMVY3NC43TDk5LjIsOTAuMUg3Mi42VjczLjdIOTNWNTguNmwxNS40LTI0LjFIOTNWMTUuOGgtOXYxOC43SDY4LjZMODQsNTguNHY2LjNINjMuNnYyNS40ICBINTJWNzQuN0wyMSw5NC41bDMxLDIwVjk5LjFoMzJ2MTVMNjguNiwxMzhIODR2OS4xaDlWMTM4aDE1LjRMOTMsMTEzLjlWOTkuMWg2LjNsMjMuOSwxNS40Vjk5LjFoMTcuMVY5MC4xeiBNOTUuNiw0MS41bC03LjEsMTEuMSAgbC03LjEtMTEuMUg5NS42eiBNNDUsMTAxLjdMMzQsOTQuNUw0NSw4Ny41VjEwMS43eiBNODEuNCwxMzFsNy4xLTExLjFsNy4xLDExLjFIODEuNHogTTExNi4yLDEwMS43bC0xMS4xLTcuMWwxMS4xLTcuMVYxMDEuN3oiLz4mI3hhOzwvc3ZnPg==" vertex="1" parent="1">
          <mxGeometry x="1056" y="370" width="54" height="54" as="geometry" />
        </mxCell>
        <mxCell id="9CzY_LCpeozfdE7S5n3H-4" value="LB - WLS Internal&#xa;(10.0.3.4)" style="shape=image;verticalLabelPosition=bottom;verticalAlign=top;imageAspect=0;aspect=fixed;image=data:image/svg+xml,PHN2ZyB2ZXJzaW9uPSIxLjEiIGlkPSJMb2FkX0JhbGFuY2VyIiB4bWxucz0iaHR0cDovL3d3dy53My5vcmcvMjAwMC9zdmciIHhtbG5zOnhsaW5rPSJodHRwOi8vd3d3LnczLm9yZy8xOTk5L3hsaW5rIiB4PSIwcHgiIHk9IjBweCIgdmlld0JveD0iMCAwIDE2MS45IDE2MiIgZW5hYmxlLWJhY2tncm91bmQ9Im5ldyAwIDAgMTYxLjkgMTYyIiB4bWw6c3BhY2U9InByZXNlcnZlIj4mI3hhOzxwYXRoIGZpbGw9IiMzMTJEMkEiIGQ9Ik0xMjIuNSwxMTIuOEw5Mi42LDg0LjdoMzYuMnY2LjZsMTgtOS45bC0xOC05Ljl2NS4ySDkyLjNsMzAuMi0yOC40bDQuMSw0LjRsNi4zLTE5LjZMMTEzLDM4LjJsNCw0LjIgIEw4OCw2OS43VjMwLjZIMjguOHY0Ni4xSDExLjF2OGgxNy43djQ2LjlIODhWOTEuM2wyOSwyNy4zbC00LDQuMmwxOS45LDUuMWwtNi4zLTE5LjZMMTIyLjUsMTEyLjh6IE03OSwxMjIuNUgzNy44Vjg0LjdoMjIuN3Y2LjYgIGwxOC05LjlsLTE4LTkuOXY1LjJIMzcuOFYzOS42SDc5VjEyMi41eiIvPiYjeGE7PC9zdmc+;rotation=0;" vertex="1" parent="1">
          <mxGeometry x="790" y="220" width="62" height="62" as="geometry" />
        </mxCell>
        <mxCell id="9CzY_LCpeozfdE7S5n3H-11" value="OCI Registry" style="shape=image;verticalLabelPosition=bottom;verticalAlign=top;imageAspect=0;aspect=fixed;image=data:image/svg+xml,PHN2ZyB2ZXJzaW9uPSIxLjEiIGlkPSJPS0VfQUxUMiIgeG1sbnM9Imh0dHA6Ly93d3cudzMub3JnLzIwMDAvc3ZnIiB4bWxuczp4bGluaz0iaHR0cDovL3d3dy53My5vcmcvMTk5OS94bGluayIgeD0iMHB4IiB5PSIwcHgiIHZpZXdCb3g9IjAgMCAxNjEuOSAxNjIiIGVuYWJsZS1iYWNrZ3JvdW5kPSJuZXcgMCAwIDE2MS45IDE2MiIgeG1sOnNwYWNlPSJwcmVzZXJ2ZSI+JiN4YTs8cGF0aCBmaWxsPSIjMzEyRDJBIiBkPSJNNzEuNiwxMTMuOGgxOS4yaDloMjguNFY3Ni40aC0xNC4xVjQ4SDg1LjVoLTguOEg0OC4xdjI4LjRoLTE0djM3LjRoMjguMkg3MS42eiBNOTAuOCwxMDQuOEg3MS42Vjg1LjRoNS4xICBoOC44aDUuM1YxMDQuOHogTTExOS4yLDg1LjR2MTkuNEg5OS44Vjg1LjRoMTQuM0gxMTkuMnogTTg1LjcsNTdoMTkuNHYxOS40aC01LjNoLTloLTUuMVY1N3ogTTU3LjEsNTdoMTkuNHYxOS40aC01aC05LjJoLTUuM1Y1N3ogICBNNDMuMiwxMDQuOFY4NS40aDVoMTQuM3YxOS40SDQzLjJ6IE05LDkuMnYxNDMuNmgxNDMuOFY5LjJIOXogTTE0My44LDE0My45SDE4VjE4LjJoMTI1LjhWMTQzLjl6Ii8+JiN4YTs8L3N2Zz4=" vertex="1" parent="1">
          <mxGeometry x="1059" y="499" width="51" height="51" as="geometry" />
        </mxCell>
        <mxCell id="9CzY_LCpeozfdE7S5n3H-18" value="" style="group" vertex="1" connectable="0" parent="1">
          <mxGeometry x="680" y="145" width="350" height="495" as="geometry" />
        </mxCell>
        <mxCell id="9CzY_LCpeozfdE7S5n3H-20" value="" style="group" vertex="1" connectable="0" parent="9CzY_LCpeozfdE7S5n3H-18">
          <mxGeometry x="-150" y="215" width="500" height="280" as="geometry" />
        </mxCell>
        <mxCell id="9CzY_LCpeozfdE7S5n3H-12" value="" style="rounded=1;whiteSpace=wrap;html=1;strokeWidth=2;dashed=1;" vertex="1" parent="9CzY_LCpeozfdE7S5n3H-20">
          <mxGeometry x="10" y="32" width="480" height="218" as="geometry" />
        </mxCell>
        <mxCell id="0uaCBq9OTAoCECaHlLFM-5" value="Private Subnet - OKE Cluster" style="outlineConnect=0;gradientColor=none;html=1;whiteSpace=wrap;fontSize=12;fontStyle=0;shape=mxgraph.aws4.group;grIcon=mxgraph.aws4.group_subnet;strokeColor=#879196;fillColor=none;verticalAlign=top;align=left;spacingLeft=30;fontColor=#879196;dashed=0;" parent="9CzY_LCpeozfdE7S5n3H-20" vertex="1">
          <mxGeometry width="500" height="280" as="geometry" />
        </mxCell>
        <mxCell id="0uaCBq9OTAoCECaHlLFM-12" value="OKE Cluster" style="shape=image;verticalLabelPosition=bottom;verticalAlign=top;imageAspect=0;aspect=fixed;image=data:image/svg+xml,PHN2ZyB2ZXJzaW9uPSIxLjEiIGlkPSJPS0VfQUxUMiIgeG1sbnM9Imh0dHA6Ly93d3cudzMub3JnLzIwMDAvc3ZnIiB4bWxuczp4bGluaz0iaHR0cDovL3d3dy53My5vcmcvMTk5OS94bGluayIgeD0iMHB4IiB5PSIwcHgiIHZpZXdCb3g9IjAgMCAxNjEuOSAxNjIiIGVuYWJsZS1iYWNrZ3JvdW5kPSJuZXcgMCAwIDE2MS45IDE2MiIgeG1sOnNwYWNlPSJwcmVzZXJ2ZSI+JiN4YTs8cGF0aCBmaWxsPSIjMzEyRDJBIiBkPSJNMzMuOSw5Ni4zYzAsMC40LDIuNSwzOC4zLDQ2LjgsMzguM2MwLDAsMC4xLDAsMC4xLDBjNDAuMSwwLDQ3LjItMzYuNiw0Ny4zLTM3bDAuNy0zLjhsLTIuNS0wLjhWNjAuNWgtMTMuNyAgVjMzSDg0LjloLTcuOEg0OS4zdjI3LjZIMzUuOHYzMS42bC0yLjEsMC43TDMzLjksOTYuM3ogTTQzLjQsOTkuMWwzMy44LTExLjJ2MzcuNkM1MS4zLDEyNCw0NC45LDEwNi42LDQzLjQsOTkuMXogTTkwLjgsODAuNyAgbC0xMC0zLjVsLTkuNCwzLjFWNjguNWg1LjdoNy44aDUuOVY4MC43eiBNODQuMSwxMjUuNVY4Ny45bDM0LjEsMTEuN0MxMTUuNywxMDcuMywxMDcuNCwxMjQsODQuMSwxMjUuNXogTTExOC4zLDY4LjV2MjEuNiAgbC0xOS42LTYuN1Y2OC41aDEzLjlIMTE4LjN6IE04NS4xLDQxaDE5LjZ2MTkuNmgtNS45aC04aC01LjdWNDF6IE01Ny4zLDQxaDE5LjZ2MTkuNmgtNS41aC04LjJoLTUuOVY0MXogTTQzLjgsNjguNWg1LjVoMTMuOVY4MyAgbC0xOS40LDYuNFY2OC41eiBNOSw5LjJ2MTQzLjZoMTQzLjhWOS4ySDl6IE0xNDMuOCwxNDMuOUgxOFYxOC4yaDEyNS44VjE0My45eiIvPiYjeGE7PC9zdmc+" parent="9CzY_LCpeozfdE7S5n3H-20" vertex="1">
          <mxGeometry x="440" y="120" width="30" height="30" as="geometry" />
        </mxCell>
        <mxCell id="0uaCBq9OTAoCECaHlLFM-19" value="K8s Node 1 WLS" style="shape=image;verticalLabelPosition=bottom;verticalAlign=top;imageAspect=0;aspect=fixed;image=data:image/svg+xml,PHN2ZyB2ZXJzaW9uPSIxLjEiIGlkPSJWTSIgeG1sbnM9Imh0dHA6Ly93d3cudzMub3JnLzIwMDAvc3ZnIiB4bWxuczp4bGluaz0iaHR0cDovL3d3dy53My5vcmcvMTk5OS94bGluayIgeD0iMHB4IiB5PSIwcHgiIHZpZXdCb3g9IjAgMCAxNjEuOSAxNjIiIGVuYWJsZS1iYWNrZ3JvdW5kPSJuZXcgMCAwIDE2MS45IDE2MiIgeG1sOnNwYWNlPSJwcmVzZXJ2ZSI+JiN4YTs8cGF0aCBmaWxsPSIjMzEyRDJBIiBkPSJNNjAuNCw5MC45SDMzLjdWNjQuMWgyNi43VjkwLjl6IE00MC43LDgzLjloMTIuN1Y3MS4xSDQwLjdWODMuOXogTTEyNy42LDkwLjloLTI2LjdWNjQuMWgyNi43VjkwLjl6ICAgTTEwNy44LDgzLjloMTIuN1Y3MS4xaC0xMi43VjgzLjl6IE05My45LDkwLjlINjcuMlY2NC4xaDI2LjdWOTAuOXogTTc0LjIsODMuOWgxMi43VjcxLjFINzQuMlY4My45eiBNNjAuNCw1Ny44SDMzLjdWMzEuMWgyNi43ICBWNTcuOHogTTQwLjcsNTAuOGgxMi43VjM4LjFINDAuN1Y1MC44eiBNMTI3LjYsNTcuOGgtMjYuN1YzMS4xaDI2LjdWNTcuOHogTTEwNy44LDUwLjhoMTIuN1YzOC4xaC0xMi43VjUwLjh6IE05My45LDU3LjhINjcuMlYzMS4xICBoMjYuN1Y1Ny44eiBNNzQuMiw1MC44aDEyLjdWMzguMUg3NC4yVjUwLjh6IE0xNTIuOCwxNTIuOUg5VjkuMmgxNDMuOFYxNTIuOXogTTE4LDE0My45aDEyNS44VjE4LjJIMThWMTQzLjl6IE0xMjkuMSwxMzIuM0gzMi45ICBWOTcuNGg5Ni4zVjEzMi4zeiBNNDEuOSwxMjMuM2g3OC4zdi0xNi45SDQxLjlWMTIzLjN6IE0xMDUuOCwxMTAuMmMtMi42LDAtNC43LDIuMS00LjcsNC43YzAsMi42LDIuMSw0LjcsNC43LDQuNyAgYzIuNiwwLDQuNy0yLjEsNC43LTQuN0MxMTAuNSwxMTIuMywxMDguNCwxMTAuMiwxMDUuOCwxMTAuMnoiLz4mI3hhOzwvc3ZnPg==" parent="9CzY_LCpeozfdE7S5n3H-20" vertex="1">
          <mxGeometry x="50" y="54" width="40" height="40" as="geometry" />
        </mxCell>
        <mxCell id="9CzY_LCpeozfdE7S5n3H-5" value="K8s Node 1 non-WLS" style="shape=image;verticalLabelPosition=bottom;verticalAlign=top;imageAspect=0;aspect=fixed;image=data:image/svg+xml,PHN2ZyB2ZXJzaW9uPSIxLjEiIGlkPSJWTSIgeG1sbnM9Imh0dHA6Ly93d3cudzMub3JnLzIwMDAvc3ZnIiB4bWxuczp4bGluaz0iaHR0cDovL3d3dy53My5vcmcvMTk5OS94bGluayIgeD0iMHB4IiB5PSIwcHgiIHZpZXdCb3g9IjAgMCAxNjEuOSAxNjIiIGVuYWJsZS1iYWNrZ3JvdW5kPSJuZXcgMCAwIDE2MS45IDE2MiIgeG1sOnNwYWNlPSJwcmVzZXJ2ZSI+JiN4YTs8cGF0aCBmaWxsPSIjMzEyRDJBIiBkPSJNNjAuNCw5MC45SDMzLjdWNjQuMWgyNi43VjkwLjl6IE00MC43LDgzLjloMTIuN1Y3MS4xSDQwLjdWODMuOXogTTEyNy42LDkwLjloLTI2LjdWNjQuMWgyNi43VjkwLjl6ICAgTTEwNy44LDgzLjloMTIuN1Y3MS4xaC0xMi43VjgzLjl6IE05My45LDkwLjlINjcuMlY2NC4xaDI2LjdWOTAuOXogTTc0LjIsODMuOWgxMi43VjcxLjFINzQuMlY4My45eiBNNjAuNCw1Ny44SDMzLjdWMzEuMWgyNi43ICBWNTcuOHogTTQwLjcsNTAuOGgxMi43VjM4LjFINDAuN1Y1MC44eiBNMTI3LjYsNTcuOGgtMjYuN1YzMS4xaDI2LjdWNTcuOHogTTEwNy44LDUwLjhoMTIuN1YzOC4xaC0xMi43VjUwLjh6IE05My45LDU3LjhINjcuMlYzMS4xICBoMjYuN1Y1Ny44eiBNNzQuMiw1MC44aDEyLjdWMzguMUg3NC4yVjUwLjh6IE0xNTIuOCwxNTIuOUg5VjkuMmgxNDMuOFYxNTIuOXogTTE4LDE0My45aDEyNS44VjE4LjJIMThWMTQzLjl6IE0xMjkuMSwxMzIuM0gzMi45ICBWOTcuNGg5Ni4zVjEzMi4zeiBNNDEuOSwxMjMuM2g3OC4zdi0xNi45SDQxLjlWMTIzLjN6IE0xMDUuOCwxMTAuMmMtMi42LDAtNC43LDIuMS00LjcsNC43YzAsMi42LDIuMSw0LjcsNC43LDQuNyAgYzIuNiwwLDQuNy0yLjEsNC43LTQuN0MxMTAuNSwxMTIuMywxMDguNCwxMTAuMiwxMDUuOCwxMTAuMnoiLz4mI3hhOzwvc3ZnPg==" vertex="1" parent="9CzY_LCpeozfdE7S5n3H-20">
          <mxGeometry x="50" y="140" width="40" height="40" as="geometry" />
        </mxCell>
        <mxCell id="9CzY_LCpeozfdE7S5n3H-6" value="K8s Node 2 non-WLS" style="shape=image;verticalLabelPosition=bottom;verticalAlign=top;imageAspect=0;aspect=fixed;image=data:image/svg+xml,PHN2ZyB2ZXJzaW9uPSIxLjEiIGlkPSJWTSIgeG1sbnM9Imh0dHA6Ly93d3cudzMub3JnLzIwMDAvc3ZnIiB4bWxuczp4bGluaz0iaHR0cDovL3d3dy53My5vcmcvMTk5OS94bGluayIgeD0iMHB4IiB5PSIwcHgiIHZpZXdCb3g9IjAgMCAxNjEuOSAxNjIiIGVuYWJsZS1iYWNrZ3JvdW5kPSJuZXcgMCAwIDE2MS45IDE2MiIgeG1sOnNwYWNlPSJwcmVzZXJ2ZSI+JiN4YTs8cGF0aCBmaWxsPSIjMzEyRDJBIiBkPSJNNjAuNCw5MC45SDMzLjdWNjQuMWgyNi43VjkwLjl6IE00MC43LDgzLjloMTIuN1Y3MS4xSDQwLjdWODMuOXogTTEyNy42LDkwLjloLTI2LjdWNjQuMWgyNi43VjkwLjl6ICAgTTEwNy44LDgzLjloMTIuN1Y3MS4xaC0xMi43VjgzLjl6IE05My45LDkwLjlINjcuMlY2NC4xaDI2LjdWOTAuOXogTTc0LjIsODMuOWgxMi43VjcxLjFINzQuMlY4My45eiBNNjAuNCw1Ny44SDMzLjdWMzEuMWgyNi43ICBWNTcuOHogTTQwLjcsNTAuOGgxMi43VjM4LjFINDAuN1Y1MC44eiBNMTI3LjYsNTcuOGgtMjYuN1YzMS4xaDI2LjdWNTcuOHogTTEwNy44LDUwLjhoMTIuN1YzOC4xaC0xMi43VjUwLjh6IE05My45LDU3LjhINjcuMlYzMS4xICBoMjYuN1Y1Ny44eiBNNzQuMiw1MC44aDEyLjdWMzguMUg3NC4yVjUwLjh6IE0xNTIuOCwxNTIuOUg5VjkuMmgxNDMuOFYxNTIuOXogTTE4LDE0My45aDEyNS44VjE4LjJIMThWMTQzLjl6IE0xMjkuMSwxMzIuM0gzMi45ICBWOTcuNGg5Ni4zVjEzMi4zeiBNNDEuOSwxMjMuM2g3OC4zdi0xNi45SDQxLjlWMTIzLjN6IE0xMDUuOCwxMTAuMmMtMi42LDAtNC43LDIuMS00LjcsNC43YzAsMi42LDIuMSw0LjcsNC43LDQuNyAgYzIuNiwwLDQuNy0yLjEsNC43LTQuN0MxMTAuNSwxMTIuMywxMDguNCwxMTAuMiwxMDUuOCwxMTAuMnoiLz4mI3hhOzwvc3ZnPg==" vertex="1" parent="9CzY_LCpeozfdE7S5n3H-20">
          <mxGeometry x="186.5" y="140" width="40" height="40" as="geometry" />
        </mxCell>
        <mxCell id="9CzY_LCpeozfdE7S5n3H-9" value="K8s Node 2 WLS" style="shape=image;verticalLabelPosition=bottom;verticalAlign=top;imageAspect=0;aspect=fixed;image=data:image/svg+xml,PHN2ZyB2ZXJzaW9uPSIxLjEiIGlkPSJWTSIgeG1sbnM9Imh0dHA6Ly93d3cudzMub3JnLzIwMDAvc3ZnIiB4bWxuczp4bGluaz0iaHR0cDovL3d3dy53My5vcmcvMTk5OS94bGluayIgeD0iMHB4IiB5PSIwcHgiIHZpZXdCb3g9IjAgMCAxNjEuOSAxNjIiIGVuYWJsZS1iYWNrZ3JvdW5kPSJuZXcgMCAwIDE2MS45IDE2MiIgeG1sOnNwYWNlPSJwcmVzZXJ2ZSI+JiN4YTs8cGF0aCBmaWxsPSIjMzEyRDJBIiBkPSJNNjAuNCw5MC45SDMzLjdWNjQuMWgyNi43VjkwLjl6IE00MC43LDgzLjloMTIuN1Y3MS4xSDQwLjdWODMuOXogTTEyNy42LDkwLjloLTI2LjdWNjQuMWgyNi43VjkwLjl6ICAgTTEwNy44LDgzLjloMTIuN1Y3MS4xaC0xMi43VjgzLjl6IE05My45LDkwLjlINjcuMlY2NC4xaDI2LjdWOTAuOXogTTc0LjIsODMuOWgxMi43VjcxLjFINzQuMlY4My45eiBNNjAuNCw1Ny44SDMzLjdWMzEuMWgyNi43ICBWNTcuOHogTTQwLjcsNTAuOGgxMi43VjM4LjFINDAuN1Y1MC44eiBNMTI3LjYsNTcuOGgtMjYuN1YzMS4xaDI2LjdWNTcuOHogTTEwNy44LDUwLjhoMTIuN1YzOC4xaC0xMi43VjUwLjh6IE05My45LDU3LjhINjcuMlYzMS4xICBoMjYuN1Y1Ny44eiBNNzQuMiw1MC44aDEyLjdWMzguMUg3NC4yVjUwLjh6IE0xNTIuOCwxNTIuOUg5VjkuMmgxNDMuOFYxNTIuOXogTTE4LDE0My45aDEyNS44VjE4LjJIMThWMTQzLjl6IE0xMjkuMSwxMzIuM0gzMi45ICBWOTcuNGg5Ni4zVjEzMi4zeiBNNDEuOSwxMjMuM2g3OC4zdi0xNi45SDQxLjlWMTIzLjN6IE0xMDUuOCwxMTAuMmMtMi42LDAtNC43LDIuMS00LjcsNC43YzAsMi42LDIuMSw0LjcsNC43LDQuNyAgYzIuNiwwLDQuNy0yLjEsNC43LTQuN0MxMTAuNSwxMTIuMywxMDguNCwxMTAuMiwxMDUuOCwxMTAuMnoiLz4mI3hhOzwvc3ZnPg==" vertex="1" parent="9CzY_LCpeozfdE7S5n3H-20">
          <mxGeometry x="186.5" y="54" width="40" height="40" as="geometry" />
        </mxCell>
        <mxCell id="9CzY_LCpeozfdE7S5n3H-13" value="K8s Node 3 WLS" style="shape=image;verticalLabelPosition=bottom;verticalAlign=top;imageAspect=0;aspect=fixed;image=data:image/svg+xml,PHN2ZyB2ZXJzaW9uPSIxLjEiIGlkPSJWTSIgeG1sbnM9Imh0dHA6Ly93d3cudzMub3JnLzIwMDAvc3ZnIiB4bWxuczp4bGluaz0iaHR0cDovL3d3dy53My5vcmcvMTk5OS94bGluayIgeD0iMHB4IiB5PSIwcHgiIHZpZXdCb3g9IjAgMCAxNjEuOSAxNjIiIGVuYWJsZS1iYWNrZ3JvdW5kPSJuZXcgMCAwIDE2MS45IDE2MiIgeG1sOnNwYWNlPSJwcmVzZXJ2ZSI+JiN4YTs8cGF0aCBmaWxsPSIjMzEyRDJBIiBkPSJNNjAuNCw5MC45SDMzLjdWNjQuMWgyNi43VjkwLjl6IE00MC43LDgzLjloMTIuN1Y3MS4xSDQwLjdWODMuOXogTTEyNy42LDkwLjloLTI2LjdWNjQuMWgyNi43VjkwLjl6ICAgTTEwNy44LDgzLjloMTIuN1Y3MS4xaC0xMi43VjgzLjl6IE05My45LDkwLjlINjcuMlY2NC4xaDI2LjdWOTAuOXogTTc0LjIsODMuOWgxMi43VjcxLjFINzQuMlY4My45eiBNNjAuNCw1Ny44SDMzLjdWMzEuMWgyNi43ICBWNTcuOHogTTQwLjcsNTAuOGgxMi43VjM4LjFINDAuN1Y1MC44eiBNMTI3LjYsNTcuOGgtMjYuN1YzMS4xaDI2LjdWNTcuOHogTTEwNy44LDUwLjhoMTIuN1YzOC4xaC0xMi43VjUwLjh6IE05My45LDU3LjhINjcuMlYzMS4xICBoMjYuN1Y1Ny44eiBNNzQuMiw1MC44aDEyLjdWMzguMUg3NC4yVjUwLjh6IE0xNTIuOCwxNTIuOUg5VjkuMmgxNDMuOFYxNTIuOXogTTE4LDE0My45aDEyNS44VjE4LjJIMThWMTQzLjl6IE0xMjkuMSwxMzIuM0gzMi45ICBWOTcuNGg5Ni4zVjEzMi4zeiBNNDEuOSwxMjMuM2g3OC4zdi0xNi45SDQxLjlWMTIzLjN6IE0xMDUuOCwxMTAuMmMtMi42LDAtNC43LDIuMS00LjcsNC43YzAsMi42LDIuMSw0LjcsNC43LDQuNyAgYzIuNiwwLDQuNy0yLjEsNC43LTQuN0MxMTAuNSwxMTIuMywxMDguNCwxMTAuMiwxMDUuOCwxMTAuMnoiLz4mI3hhOzwvc3ZnPg==" vertex="1" parent="9CzY_LCpeozfdE7S5n3H-20">
          <mxGeometry x="330" y="54" width="40" height="40" as="geometry" />
        </mxCell>
        <mxCell id="9CzY_LCpeozfdE7S5n3H-14" value="K8s Node 3 non-WLS" style="shape=image;verticalLabelPosition=bottom;verticalAlign=top;imageAspect=0;aspect=fixed;image=data:image/svg+xml,PHN2ZyB2ZXJzaW9uPSIxLjEiIGlkPSJWTSIgeG1sbnM9Imh0dHA6Ly93d3cudzMub3JnLzIwMDAvc3ZnIiB4bWxuczp4bGluaz0iaHR0cDovL3d3dy53My5vcmcvMTk5OS94bGluayIgeD0iMHB4IiB5PSIwcHgiIHZpZXdCb3g9IjAgMCAxNjEuOSAxNjIiIGVuYWJsZS1iYWNrZ3JvdW5kPSJuZXcgMCAwIDE2MS45IDE2MiIgeG1sOnNwYWNlPSJwcmVzZXJ2ZSI+JiN4YTs8cGF0aCBmaWxsPSIjMzEyRDJBIiBkPSJNNjAuNCw5MC45SDMzLjdWNjQuMWgyNi43VjkwLjl6IE00MC43LDgzLjloMTIuN1Y3MS4xSDQwLjdWODMuOXogTTEyNy42LDkwLjloLTI2LjdWNjQuMWgyNi43VjkwLjl6ICAgTTEwNy44LDgzLjloMTIuN1Y3MS4xaC0xMi43VjgzLjl6IE05My45LDkwLjlINjcuMlY2NC4xaDI2LjdWOTAuOXogTTc0LjIsODMuOWgxMi43VjcxLjFINzQuMlY4My45eiBNNjAuNCw1Ny44SDMzLjdWMzEuMWgyNi43ICBWNTcuOHogTTQwLjcsNTAuOGgxMi43VjM4LjFINDAuN1Y1MC44eiBNMTI3LjYsNTcuOGgtMjYuN1YzMS4xaDI2LjdWNTcuOHogTTEwNy44LDUwLjhoMTIuN1YzOC4xaC0xMi43VjUwLjh6IE05My45LDU3LjhINjcuMlYzMS4xICBoMjYuN1Y1Ny44eiBNNzQuMiw1MC44aDEyLjdWMzguMUg3NC4yVjUwLjh6IE0xNTIuOCwxNTIuOUg5VjkuMmgxNDMuOFYxNTIuOXogTTE4LDE0My45aDEyNS44VjE4LjJIMThWMTQzLjl6IE0xMjkuMSwxMzIuM0gzMi45ICBWOTcuNGg5Ni4zVjEzMi4zeiBNNDEuOSwxMjMuM2g3OC4zdi0xNi45SDQxLjlWMTIzLjN6IE0xMDUuOCwxMTAuMmMtMi42LDAtNC43LDIuMS00LjcsNC43YzAsMi42LDIuMSw0LjcsNC43LDQuNyAgYzIuNiwwLDQuNy0yLjEsNC43LTQuN0MxMTAuNSwxMTIuMywxMDguNCwxMTAuMiwxMDUuOCwxMTAuMnoiLz4mI3hhOzwvc3ZnPg==" vertex="1" parent="9CzY_LCpeozfdE7S5n3H-20">
          <mxGeometry x="330" y="140" width="40" height="40" as="geometry" />
        </mxCell>
        <mxCell id="9CzY_LCpeozfdE7S5n3H-19" value="" style="group" vertex="1" connectable="0" parent="1">
          <mxGeometry x="319" y="358" width="190" height="280" as="geometry" />
        </mxCell>
        <mxCell id="0uaCBq9OTAoCECaHlLFM-8" value="Private Subnet - Admin" style="outlineConnect=0;gradientColor=none;html=1;whiteSpace=wrap;fontSize=12;fontStyle=0;shape=mxgraph.aws4.group;grIcon=mxgraph.aws4.group_subnet;strokeColor=#879196;fillColor=none;verticalAlign=top;align=left;spacingLeft=30;fontColor=#879196;dashed=0;" parent="9CzY_LCpeozfdE7S5n3H-19" vertex="1">
          <mxGeometry width="190" height="280" as="geometry" />
        </mxCell>
        <mxCell id="0uaCBq9OTAoCECaHlLFM-21" value="VM - Admin" style="shape=image;verticalLabelPosition=bottom;verticalAlign=top;imageAspect=0;aspect=fixed;image=data:image/svg+xml,PHN2ZyB2ZXJzaW9uPSIxLjEiIGlkPSJWTSIgeG1sbnM9Imh0dHA6Ly93d3cudzMub3JnLzIwMDAvc3ZnIiB4bWxuczp4bGluaz0iaHR0cDovL3d3dy53My5vcmcvMTk5OS94bGluayIgeD0iMHB4IiB5PSIwcHgiIHZpZXdCb3g9IjAgMCAxNjEuOSAxNjIiIGVuYWJsZS1iYWNrZ3JvdW5kPSJuZXcgMCAwIDE2MS45IDE2MiIgeG1sOnNwYWNlPSJwcmVzZXJ2ZSI+JiN4YTs8cGF0aCBmaWxsPSIjMzEyRDJBIiBkPSJNNjAuNCw5MC45SDMzLjdWNjQuMWgyNi43VjkwLjl6IE00MC43LDgzLjloMTIuN1Y3MS4xSDQwLjdWODMuOXogTTEyNy42LDkwLjloLTI2LjdWNjQuMWgyNi43VjkwLjl6ICAgTTEwNy44LDgzLjloMTIuN1Y3MS4xaC0xMi43VjgzLjl6IE05My45LDkwLjlINjcuMlY2NC4xaDI2LjdWOTAuOXogTTc0LjIsODMuOWgxMi43VjcxLjFINzQuMlY4My45eiBNNjAuNCw1Ny44SDMzLjdWMzEuMWgyNi43ICBWNTcuOHogTTQwLjcsNTAuOGgxMi43VjM4LjFINDAuN1Y1MC44eiBNMTI3LjYsNTcuOGgtMjYuN1YzMS4xaDI2LjdWNTcuOHogTTEwNy44LDUwLjhoMTIuN1YzOC4xaC0xMi43VjUwLjh6IE05My45LDU3LjhINjcuMlYzMS4xICBoMjYuN1Y1Ny44eiBNNzQuMiw1MC44aDEyLjdWMzguMUg3NC4yVjUwLjh6IE0xNTIuOCwxNTIuOUg5VjkuMmgxNDMuOFYxNTIuOXogTTE4LDE0My45aDEyNS44VjE4LjJIMThWMTQzLjl6IE0xMjkuMSwxMzIuM0gzMi45ICBWOTcuNGg5Ni4zVjEzMi4zeiBNNDEuOSwxMjMuM2g3OC4zdi0xNi45SDQxLjlWMTIzLjN6IE0xMDUuOCwxMTAuMmMtMi42LDAtNC43LDIuMS00LjcsNC43YzAsMi42LDIuMSw0LjcsNC43LDQuNyAgYzIuNiwwLDQuNy0yLjEsNC43LTQuN0MxMTAuNSwxMTIuMywxMDguNCwxMTAuMiwxMDUuOCwxMTAuMnoiLz4mI3hhOzwvc3ZnPg==" parent="9CzY_LCpeozfdE7S5n3H-19" vertex="1">
          <mxGeometry x="75" y="100" width="40" height="40" as="geometry" />
        </mxCell>
        <mxCell id="0uaCBq9OTAoCECaHlLFM-9" value="Private Subnet - FSS" style="outlineConnect=0;gradientColor=none;html=1;whiteSpace=wrap;fontSize=12;fontStyle=0;shape=mxgraph.aws4.group;grIcon=mxgraph.aws4.group_subnet;strokeColor=#879196;fillColor=none;verticalAlign=top;align=left;spacingLeft=30;fontColor=#879196;dashed=0;" parent="1" vertex="1">
          <mxGeometry x="90" y="360" width="180" height="280" as="geometry" />
        </mxCell>
        <mxCell id="9CzY_LCpeozfdE7S5n3H-10" value="Mount Target&#xa;(10.0.5.3)" style="shape=image;verticalLabelPosition=bottom;verticalAlign=top;imageAspect=0;aspect=fixed;image=data:image/svg+xml,PHN2ZyB2ZXJzaW9uPSIxLjEiIGlkPSJGaWxlX1N0b3JhZ2UiIHhtbG5zPSJodHRwOi8vd3d3LnczLm9yZy8yMDAwL3N2ZyIgeG1sbnM6eGxpbms9Imh0dHA6Ly93d3cudzMub3JnLzE5OTkveGxpbmsiIHg9IjBweCIgeT0iMHB4IiB2aWV3Qm94PSIwIDAgMTYxLjkgMTYyIiBlbmFibGUtYmFja2dyb3VuZD0ibmV3IDAgMCAxNjEuOSAxNjIiIHhtbDpzcGFjZT0icHJlc2VydmUiPiYjeGE7PHBhdGggZmlsbD0iIzMxMkQyQSIgZD0iTTE1My4xLDE1Mi41SDkuNFYyNi44aDE0My44VjE1Mi41eiBNMTguNCwxNDMuNWgxMjUuOFYzNS44SDE4LjRWMTQzLjV6IE0xNTIuNiw5LjFIOC45djloMTQzLjhWOS4xeiAgIE0xMTIsMTI0LjFIMzYuOFY3MC45aDAuMVY1OS4xaDMzLjlsNi45LDExLjdIMTEyVjEyNC4xeiBNNDQuMywxMTYuNmg2MC4yVjc4LjRINzMuNGwtNi45LTExLjdINDQuNHYxMS43aC0wLjFWMTE2LjZ6IE0xMjQuNyw1OUg3OSAgbDQsN2gzNC43djU4LjRoN1Y1OXoiLz4mI3hhOzwvc3ZnPg==" vertex="1" parent="1">
          <mxGeometry x="140" y="450" width="81" height="81" as="geometry" />
        </mxCell>
        <mxCell id="9CzY_LCpeozfdE7S5n3H-24" value="&lt;h1 style=&quot;font-size: 12px&quot;&gt;&lt;font style=&quot;font-size: 12px&quot; face=&quot;Courier New&quot;&gt;NAME &amp;nbsp; &amp;nbsp; &amp;nbsp; STATUS &amp;nbsp; ROLES &amp;nbsp; AGE &amp;nbsp; &amp;nbsp;VERSION&lt;/font&gt;&lt;/h1&gt;&lt;h1 style=&quot;font-size: 12px&quot;&gt;&lt;font style=&quot;font-size: 12px&quot; face=&quot;Courier New&quot;&gt;10.0.4.2 &amp;nbsp; Ready &amp;nbsp; &amp;nbsp;node &amp;nbsp; &amp;nbsp;3d4h &amp;nbsp; v1.18.10&lt;/font&gt;&lt;/h1&gt;&lt;h1 style=&quot;font-size: 12px&quot;&gt;&lt;font style=&quot;font-size: 12px&quot; face=&quot;Courier New&quot;&gt;10.0.4.3 &amp;nbsp; Ready &amp;nbsp; &amp;nbsp;node &amp;nbsp; &amp;nbsp;3d4h &amp;nbsp; v1.18.10&lt;/font&gt;&lt;/h1&gt;&lt;h1 style=&quot;font-size: 12px&quot;&gt;&lt;font style=&quot;font-size: 12px&quot; face=&quot;Courier New&quot;&gt;10.0.4.4 &amp;nbsp; Ready &amp;nbsp; &amp;nbsp;node &amp;nbsp; &amp;nbsp;3d4h &amp;nbsp; v1.18.10&lt;/font&gt;&lt;/h1&gt;&lt;h1 style=&quot;font-size: 12px&quot;&gt;&lt;font style=&quot;font-size: 12px&quot; face=&quot;Courier New&quot;&gt;10.0.4.5 &amp;nbsp; Ready &amp;nbsp; &amp;nbsp;node &amp;nbsp; &amp;nbsp;3d4h &amp;nbsp; v1.18.10&lt;/font&gt;&lt;/h1&gt;&lt;h1 style=&quot;font-size: 12px&quot;&gt;&lt;font style=&quot;font-size: 12px&quot; face=&quot;Courier New&quot;&gt;10.0.4.6 &amp;nbsp; Ready &amp;nbsp; &amp;nbsp;node &amp;nbsp; &amp;nbsp;3d4h &amp;nbsp; v1.18.10&lt;/font&gt;&lt;/h1&gt;&lt;h1 style=&quot;font-size: 12px&quot;&gt;&lt;font style=&quot;font-size: 12px&quot; face=&quot;Courier New&quot;&gt;10.0.4.7 &amp;nbsp; Ready &amp;nbsp; &amp;nbsp;node &amp;nbsp; &amp;nbsp;3d4h &amp;nbsp; v1.18.10&lt;/font&gt;&lt;/h1&gt;" style="text;html=1;strokeColor=none;fillColor=none;spacing=5;spacingTop=-20;whiteSpace=wrap;overflow=hidden;rounded=0;dashed=1;fontSize=9;" vertex="1" parent="1">
          <mxGeometry x="530" y="660" width="550" height="200" as="geometry" />
        </mxCell>
        <mxCell id="9CzY_LCpeozfdE7S5n3H-25" value="&lt;h1 style=&quot;font-size: 12px;&quot;&gt;&lt;font style=&quot;font-size: 12px;&quot; face=&quot;Courier New&quot;&gt;Filesystem &amp;nbsp; &amp;nbsp; &amp;nbsp; Size &amp;nbsp;Used Avail Use% Mounted on&lt;/font&gt;&lt;/h1&gt;&lt;h1 style=&quot;font-size: 12px;&quot;&gt;&lt;font style=&quot;font-size: 12px;&quot; face=&quot;Courier New&quot;&gt;10.0.5.3:/agwls &amp;nbsp;8.0E &amp;nbsp;497M &amp;nbsp;8.0E &amp;nbsp; 1% /u01/shared&lt;/font&gt;&lt;/h1&gt;" style="text;html=1;strokeColor=none;fillColor=none;spacing=5;spacingTop=-20;whiteSpace=wrap;overflow=hidden;rounded=0;dashed=1;fontSize=12;" vertex="1" parent="1">
          <mxGeometry x="90" y="670" width="420" height="60" as="geometry" />
        </mxCell>
      </root>
    </mxGraphModel>
  </diagram>
</mxfile>
